# xmcd
#
# Track frame offsets:
# 150
# 17400
# 35022
# 48460
# 69767
# 87360
# 108022
# 135115
# 148582
# 166660
# 185870
# 202525
# 217577
# 243170
# 278752
#
# Disc length: 4022 seconds
#
#
# Revision: 2
# Processed by: cddbd v1.5.2PL0 Copyright (c) Steve Scherf et al.
# Submitted via: FreeRIP 2.96 
#
DISCID=b50fb40f
DTITLE=Chicago - The Heart Of Chicago
DYEAR=1900
DGENRE=Rock
TTITLE0=You,re the inspiration
TTITLE1=If you leave me now
TTITLE2=Make me smile
TTITLE3=Hard habit to break
TTITLE4=Saturday in the park
TTITLE5=Wishing you were here
TTITLE6=The only one
TTITLE7=Colour my world
TTITLE8=Look away
TTITLE9=Here in my heart
TTITLE10=Just you 'n' me
TTITLE11=Does anybody really know what time is it?
TTITLE12=Will you still love me?
TTITLE13=Beginners
TTITLE14=Hard to say I'm sorry/get away
EXTD=
EXTT0=
EXTT1=
EXTT2=
EXTT3=
EXTT4=
EXTT5=
EXTT6=
EXTT7=
EXTT8=
EXTT9=
EXTT10=
EXTT11=
EXTT12=
EXTT13=
EXTT14=
PLAYORDER=
